<?xml version="1.0" encoding="utf-8"?>
<!-- Generator: Adobe Illustrator 16.0.0, SVG Export Plug-In . SVG Version: 6.00 Build 0)  -->
<!DOCTYPE svg PUBLIC "-//W3C//DTD SVG 1.1//EN" "http://www.w3.org/Graphics/SVG/1.1/DTD/svg11.dtd">
<svg version="1.1" id="图层_1" xmlns="http://www.w3.org/2000/svg" xmlns:xlink="http://www.w3.org/1999/xlink" x="0px" y="0px"
	 width="16px" height="16px" viewBox="0 0 16 16" enable-background="new 0 0 16 16" xml:space="preserve">
<path fill-rule="evenodd" clip-rule="evenodd" fill="#FF9797" d="M15.277,5.543c0,1.584,0,4.752,0,4.752s-0.004,0.27-0.156,0.462
	c-0.177,0.243-0.396,0.41-0.709,0.426c-3.605,0-7.211,0-10.816,0c-0.081-0.006-0.402-0.38-0.402-0.38s-0.268-0.289-0.403-0.432
	C2.417,9.978,2.048,9.576,1.674,9.181c-0.278-0.292-0.55-0.59-0.829-0.883C0.766,8.215,0.749,8.116,0.723,8.015
	c0-0.07,0-0.141,0-0.211c0.009-0.216,0.173-0.339,0.302-0.475c0.271-0.285,0.538-0.574,0.808-0.86
	C2.248,6.029,2.66,5.587,3.071,5.145c0.131-0.142,0.393-0.425,0.393-0.425s0.083-0.072,0.132-0.084c3.605,0,7.211,0,10.816,0
	c0.388,0.026,0.626,0.256,0.797,0.583C15.263,5.321,15.271,5.438,15.277,5.543z"/>
</svg>
