<?xml version="1.0" encoding="utf-8"?>
<!-- Generator: Adobe Illustrator 16.0.0, SVG Export Plug-In . SVG Version: 6.00 Build 0)  -->
<!DOCTYPE svg PUBLIC "-//W3C//DTD SVG 1.1//EN" "http://www.w3.org/Graphics/SVG/1.1/DTD/svg11.dtd">
<svg version="1.1" id="图层_1" xmlns="http://www.w3.org/2000/svg" xmlns:xlink="http://www.w3.org/1999/xlink" x="0px" y="0px"
	 width="16px" height="16px" viewBox="0 0 16 16" enable-background="new 0 0 16 16" xml:space="preserve">
<g>
	<path fill-rule="evenodd" clip-rule="evenodd" fill="#FFFFFF" d="M10.869,7.579L6.627,5.131c-0.43-0.25-0.986,0.07-0.986,0.57
		v4.908c0,0.501,0.542,0.82,0.986,0.57l4.242-2.447C11.3,8.469,11.3,7.829,10.869,7.579L10.869,7.579z"/>
	<path fill="#FFFFFF" d="M7.958,0.854c3.896,0,7.067,3.17,7.067,7.067c0,3.896-3.171,7.067-7.067,7.067
		c-3.897,0-7.067-3.171-7.067-7.067C0.891,4.024,4.061,0.854,7.958,0.854 M7.958,0.254c-4.234,0-7.667,3.433-7.667,7.667
		s3.433,7.667,7.667,7.667s7.667-3.433,7.667-7.667S12.192,0.254,7.958,0.254L7.958,0.254z"/>
</g>
</svg>
