<?xml version="1.0" encoding="utf-8"?>
<!-- Generator: Adobe Illustrator 16.0.0, SVG Export Plug-In . SVG Version: 6.00 Build 0)  -->
<!DOCTYPE svg PUBLIC "-//W3C//DTD SVG 1.1//EN" "http://www.w3.org/Graphics/SVG/1.1/DTD/svg11.dtd">
<svg version="1.1" id="图层_1" xmlns="http://www.w3.org/2000/svg" xmlns:xlink="http://www.w3.org/1999/xlink" x="0px" y="0px"
	 width="16px" height="16px" viewBox="0 0 16 16" enable-background="new 0 0 16 16" xml:space="preserve">
<g>
	<circle fill="#42E242" cx="8" cy="8.001" r="7.8"/>
	<g>
		<path fill="#FFFFFF" d="M11.827,11.307l-0.999-0.977c0.585-0.663,0.938-1.523,0.938-2.467c0-2.082-1.723-3.768-3.85-3.768
			c-2.125,0-3.849,1.687-3.849,3.768c0,2.083,1.723,3.768,3.849,3.768c0.902,0,1.732-0.305,2.389-0.813l1.01,0.986
			c0.142,0.141,0.367,0.141,0.511,0C11.967,11.667,11.967,11.443,11.827,11.307L11.827,11.307z M9.602,9.275
			c0,0.192-0.16,0.352-0.359,0.352H6.595c-0.199,0-0.361-0.158-0.361-0.352c0-0.022,0.002-0.049,0.006-0.07L6.212,9.171
			c0.182-0.517,0.6-0.925,1.13-1.097c-0.374-0.202-0.628-0.59-0.628-1.036c0-0.651,0.538-1.178,1.203-1.178
			c0.666,0,1.203,0.527,1.203,1.178c0,0.446-0.252,0.833-0.626,1.035C9.023,8.245,9.443,8.655,9.626,9.17L9.593,9.205
			C9.602,9.229,9.602,9.252,9.602,9.275L9.602,9.275z"/>
	</g>
</g>
</svg>
