<?xml version="1.0" encoding="utf-8"?>
<!-- Generator: Adobe Illustrator 16.0.0, SVG Export Plug-In . SVG Version: 6.00 Build 0)  -->
<!DOCTYPE svg PUBLIC "-//W3C//DTD SVG 1.1//EN" "http://www.w3.org/Graphics/SVG/1.1/DTD/svg11.dtd">
<svg version="1.1" id="图层_1" xmlns="http://www.w3.org/2000/svg" xmlns:xlink="http://www.w3.org/1999/xlink" x="0px" y="0px"
	 width="16px" height="16px" viewBox="0 0 16 16" enable-background="new 0 0 16 16" xml:space="preserve">
<g>
	<g>
		<circle fill="#FF5B62" cx="8" cy="8.001" r="7.8"/>
	</g>
	<path fill-rule="evenodd" clip-rule="evenodd" fill="#FFFFFF" d="M10.148,7.815c0.057-0.054,0.146-0.052,0.201,0.004
		c0.053,0.058,0.053,0.145-0.004,0.201l-0.818,0.79C9.51,8.826,9.502,8.853,9.506,8.877l0.213,1.257
		c0.014,0.076-0.039,0.151-0.115,0.163c-0.008,0-0.018,0.001-0.023,0.001c-0.068,0-0.129-0.049-0.141-0.117L9.225,8.925
		C9.207,8.809,9.244,8.689,9.33,8.607L10.148,7.815L10.148,7.815z M11.896,7.76c0.195-0.188,0.262-0.464,0.18-0.72
		c-0.084-0.255-0.303-0.439-0.572-0.478L9.65,6.293C9.57,6.282,9.5,6.231,9.465,6.16l-0.83-1.672
		C8.518,4.246,8.273,4.095,8.002,4.095c-0.272,0-0.514,0.151-0.635,0.393L6.536,6.162C6.5,6.233,6.432,6.284,6.352,6.295
		L4.496,6.562C4.229,6.601,4.009,6.785,3.925,7.04C3.841,7.296,3.909,7.573,4.104,7.761l1.344,1.303
		C5.504,9.119,5.532,9.2,5.518,9.279l-0.316,1.838c-0.035,0.204,0.021,0.412,0.154,0.569c0.136,0.161,0.335,0.254,0.543,0.254
		c0.115,0,0.226-0.029,0.33-0.083l1.659-0.868c0.071-0.036,0.158-0.036,0.228,0l1.66,0.869c0.104,0.056,0.213,0.083,0.328,0.083
		c0.209,0,0.404-0.093,0.541-0.253c0.135-0.156,0.191-0.364,0.156-0.57l-0.316-1.839c-0.014-0.079,0.014-0.16,0.07-0.215
		L11.896,7.76L11.896,7.76z"/>
</g>
</svg>
