<?xml version="1.0" encoding="utf-8"?>
<!-- Generator: Adobe Illustrator 16.0.0, SVG Export Plug-In . SVG Version: 6.00 Build 0)  -->
<!DOCTYPE svg PUBLIC "-//W3C//DTD SVG 1.1//EN" "http://www.w3.org/Graphics/SVG/1.1/DTD/svg11.dtd">
<svg version="1.1" id="图层_1" xmlns="http://www.w3.org/2000/svg" xmlns:xlink="http://www.w3.org/1999/xlink" x="0px" y="0px"
	 width="16px" height="16px" viewBox="0 0 16 16" enable-background="new 0 0 16 16" xml:space="preserve">
<g>
	<g>
		<path fill="#010101" d="M2.083,6.645C2.054,6.721,2.022,6.792,2,6.87C1.952,7.04,1.929,7.215,1.923,7.393
			c-0.004,0.14-0.04,0.271-0.126,0.384C1.749,7.84,1.688,7.891,1.622,7.934C1.573,7.967,1.526,8.002,1.479,8.039
			c-0.024,0.02-0.032,0.043-0.027,0.074c0.009,0.051,0.027,0.096,0.064,0.132c0.004,0.006,0.01,0.011,0.015,0.017
			c0.075,0.09,0.083,0.143,0.028,0.243C1.53,8.561,1.53,8.561,1.589,8.582C1.62,8.594,1.651,8.604,1.681,8.616
			c0.004,0.001,0.008,0.005,0.016,0.009C1.669,8.648,1.644,8.671,1.618,8.689C1.603,8.703,1.599,8.715,1.61,8.734
			c0.011,0.014,0.018,0.027,0.031,0.039c0.024,0.022,0.031,0.05,0.026,0.082c-0.006,0.043-0.017,0.082-0.03,0.123
			C1.593,9.087,1.651,9.217,1.765,9.266c0.074,0.029,0.152,0.041,0.232,0.041c0.133,0.002,0.266,0.002,0.398,0
			c0.162-0.002,0.273,0.071,0.336,0.217c0.043,0.098,0.033,0.195-0.006,0.289c-0.01,0.022-0.019,0.043-0.02,0.066
			c-0.005,0.088-0.035,0.168-0.068,0.247c-0.013,0.026-0.029,0.035-0.058,0.035c-0.28,0.005-0.538-0.072-0.783-0.202
			C1.397,9.747,1.104,9.438,0.942,9.014C0.86,8.801,0.823,8.582,0.838,8.355c0.009-0.129,0.011-0.258,0.031-0.385
			c0.036-0.211,0.12-0.402,0.237-0.578c0.182-0.271,0.414-0.489,0.695-0.651c0.086-0.05,0.178-0.084,0.277-0.103
			C2.081,6.641,2.082,6.643,2.083,6.645z"/>
		<path fill="#030303" d="M2.798,10.17c0.014-0.008,0.024-0.015,0.035-0.021c0.255-0.147,0.475-0.337,0.63-0.589
			C3.577,9.372,3.636,9.17,3.634,8.951c0-0.123,0-0.244-0.035-0.363C3.552,8.428,3.46,8.296,3.351,8.174
			C3.292,8.11,3.228,8.051,3.166,7.991C2.974,7.803,2.798,7.598,2.674,7.357C2.599,7.21,2.546,7.055,2.55,6.887
			c0.002-0.061,0.012-0.119,0.035-0.184c0.021,0.105,0.051,0.205,0.087,0.3C2.78,7.288,2.957,7.521,3.2,7.706
			c0.094,0.071,0.183,0.149,0.271,0.228c0.226,0.194,0.362,0.441,0.405,0.732c0.065,0.456-0.06,0.855-0.392,1.182
			c-0.182,0.176-0.408,0.269-0.652,0.319C2.825,10.171,2.815,10.18,2.798,10.17z"/>
		<path fill="#030303" d="M4.136,8.95C4.124,8.79,4.112,8.637,4.103,8.486C4.081,8.152,3.972,7.846,3.801,7.559
			C3.606,7.234,3.356,6.963,3.036,6.76C2.994,6.734,2.954,6.702,2.913,6.662c0.13,0.014,0.249,0.044,0.359,0.098
			c0.306,0.149,0.535,0.379,0.699,0.674C4.108,7.674,4.192,7.93,4.22,8.204c0.025,0.247-0.003,0.489-0.078,0.728
			C4.142,8.934,4.14,8.938,4.136,8.95z"/>
		<path fill="#030303" d="M3.142,8.209C3.157,8.2,3.166,8.212,3.175,8.219c0.039,0.023,0.066,0.06,0.09,0.098
			C3.31,8.391,3.339,8.473,3.362,8.559c0.031,0.107,0.05,0.221,0.061,0.334C3.435,9.01,3.414,9.122,3.381,9.235
			C3.34,9.371,3.296,9.505,3.217,9.624C3.19,9.665,3.159,9.701,3.12,9.73C3.095,9.749,3.069,9.764,3.033,9.764
			c0.013-0.015,0.022-0.027,0.034-0.041c0.135-0.174,0.209-0.373,0.23-0.592C3.33,8.809,3.267,8.504,3.142,8.209L3.142,8.209z"/>
		<path fill="#030303" d="M2.81,6.875C2.83,6.891,2.843,6.909,2.854,6.928C2.886,6.975,2.917,7.021,2.947,7.07
			C3.099,7.316,3.304,7.51,3.531,7.686c0.014,0.01,0.026,0.021,0.038,0.031c0.004,0.002,0.004,0.004,0.009,0.01
			c-0.08-0.006-0.152-0.024-0.222-0.056C3.174,7.589,3.045,7.448,2.947,7.278C2.879,7.161,2.838,7.034,2.812,6.903
			C2.81,6.896,2.812,6.889,2.81,6.875z"/>
		<path fill="#030303" d="M2.323,7.869C2.216,7.91,2.112,7.946,2.005,7.979c0.003-0.025,0.014-0.041,0.021-0.06
			c0.013-0.024,0.006-0.032-0.02-0.034C1.961,7.881,1.918,7.87,1.888,7.829c-0.011-0.015-0.011-0.022,0.008-0.03
			S1.931,7.782,1.95,7.775C1.987,7.76,2.011,7.733,2.034,7.7c0.003,0.019,0.005,0.039,0.009,0.058
			c0.009,0.043,0.026,0.059,0.069,0.063c0.045,0.005,0.09,0.001,0.133,0.013C2.272,7.84,2.298,7.85,2.323,7.869z"/>
		<path fill="#030303" d="M2.384,7.448C2.36,7.447,2.336,7.445,2.312,7.443c-0.072-0.006-0.145,0-0.215,0.015
			C2.069,7.463,2.044,7.462,2.019,7.45c-0.01-0.005-0.021-0.007-0.021-0.022C2,7.411,2.009,7.406,2.022,7.402
			c0.047-0.012,0.096-0.018,0.145-0.016C2.239,7.389,2.317,7.409,2.384,7.448z"/>
		<path fill="#010101" d="M2.079,6.641c0.002-0.002,0.006-0.004,0.008,0c0,0-0.002,0.002-0.004,0.004
			C2.082,6.643,2.081,6.641,2.079,6.641z"/>
		<path fill="#030303" d="M3.144,8.209c0-0.002,0-0.004,0-0.005c0,0,0,0.001,0.002,0.001C3.146,8.206,3.144,8.208,3.144,8.209
			L3.144,8.209z"/>
	</g>
	<g>
		<g>
			<path d="M3.295,6.619c0.006,0,0.013,0,0.019,0C3.315,6.62,3.317,6.622,3.315,6.623c0,0.001,0,0.002-0.002,0.002
				c-0.006,0-0.013,0-0.02,0C3.292,6.623,3.292,6.623,3.292,6.621C3.294,6.62,3.294,6.619,3.295,6.619z"/>
			<path d="M3.295,6.619c0,0.002,0,0.004,0,0.005c-0.004,0-0.008,0-0.013,0C3.285,6.619,3.29,6.619,3.295,6.619z"/>
			<path d="M3.313,6.624c0-0.001,0-0.004,0-0.005c0.006,0,0.011,0,0.014,0.005C3.322,6.624,3.317,6.624,3.313,6.624z"/>
			<path d="M1.765,6.483c-0.02,0.018-0.043,0.024-0.07,0.026c-0.02-0.035-0.041-0.068-0.057-0.104
				C1.53,6.169,1.399,5.947,1.25,5.735C1.231,5.709,1.242,5.68,1.271,5.665C1.281,5.66,1.285,5.668,1.292,5.672
				c0.033,0.022,0.066,0.043,0.1,0.067c0.021,0.017,0.041,0.017,0.063,0.008c0.042-0.019,0.084-0.033,0.13-0.039
				c0.025-0.004,0.049,0,0.071,0.017C1.692,5.752,1.722,5.787,1.752,5.82c0.037,0.042,0.074,0.084,0.127,0.107
				c0.024,0.01,0.042,0.008,0.063-0.011C1.978,5.885,2.005,5.85,2.03,5.811c0.023-0.037,0.049-0.074,0.074-0.111
				C2.12,5.678,2.14,5.657,2.16,5.641C2.22,5.59,2.267,5.59,2.319,5.646c0.037,0.037,0.068,0.078,0.104,0.115
				c0.018,0.02,0.033,0.039,0.053,0.056C2.515,5.85,2.545,5.852,2.588,5.824C2.629,5.799,2.662,5.764,2.694,5.73
				c0.031-0.032,0.062-0.066,0.101-0.092c0.037-0.023,0.06-0.023,0.097,0.004c0.041,0.031,0.073,0.07,0.104,0.113
				c0.033,0.049,0.064,0.1,0.105,0.141C3.158,5.958,3.183,5.961,3.246,5.91C3.319,5.85,3.392,5.785,3.464,5.723
				c0.02-0.017,0.041-0.03,0.061-0.047C3.54,5.661,3.55,5.666,3.562,5.682c0.029,0.041,0.061,0.08,0.095,0.115
				c0.016,0.016,0.028,0.018,0.05,0.01c0.061-0.027,0.117-0.063,0.176-0.092C3.894,5.71,3.903,5.698,3.913,5.708
				c0.01,0.009-0.002,0.021-0.005,0.032c-0.024,0.063-0.06,0.115-0.103,0.165c-0.125,0.136-0.238,0.28-0.349,0.428
				C3.431,6.369,3.396,6.399,3.365,6.434C3.347,6.43,3.351,6.416,3.351,6.407c0-0.034,0.01-0.063,0.024-0.095
				C3.403,6.25,3.449,6.197,3.483,6.139c0.041-0.076,0.06-0.154,0.057-0.239c0-0.021-0.006-0.04-0.016-0.058
				C3.513,5.818,3.502,5.814,3.481,5.831C3.444,5.858,3.409,5.887,3.377,5.918C3.323,5.971,3.272,6.024,3.222,6.08
				c-0.033,0.036-0.057,0.078-0.08,0.122c-0.026,0.053-0.05,0.108-0.088,0.155c-0.009,0.01-0.014,0.023-0.031,0.02
				C3.013,6.383,3.002,6.385,2.99,6.383C2.978,6.34,2.981,6.295,2.985,6.251c0.006-0.055,0.013-0.108,0.017-0.164
				c0.006-0.108-0.03-0.206-0.103-0.286c-0.055-0.063-0.11-0.063-0.17-0.007C2.631,5.891,2.571,6.008,2.552,6.146
				C2.547,6.188,2.539,6.23,2.528,6.27C2.524,6.28,2.522,6.293,2.511,6.295s-0.018-0.01-0.023-0.018
				C2.456,6.227,2.444,6.17,2.44,6.112c-0.006-0.06-0.006-0.116-0.015-0.173C2.417,5.879,2.399,5.824,2.351,5.783
				C2.304,5.744,2.257,5.741,2.207,5.779c-0.058,0.043-0.09,0.104-0.119,0.169C2.051,6.031,2.028,6.117,2.024,6.21
				c-0.004,0.058,0,0.116-0.012,0.173C2.011,6.4,2.011,6.417,1.994,6.428c-0.013,0.008-0.026,0.008-0.04,0.008
				C1.937,6.432,1.933,6.414,1.925,6.4C1.874,6.309,1.843,6.207,1.8,6.109C1.771,6.042,1.735,5.977,1.683,5.924
				C1.657,5.899,1.626,5.887,1.595,5.875c-0.015-0.005-0.022,0-0.022,0.016C1.567,5.98,1.569,6.069,1.615,6.151
				C1.666,6.24,1.722,6.326,1.757,6.424C1.763,6.442,1.776,6.461,1.765,6.483z"/>
			<circle cx="3.185" cy="5.723" r="0.11"/>
			<circle cx="3.89" cy="5.546" r="0.111"/>
			<circle cx="2.539" cy="5.596" r="0.111"/>
			<circle cx="1.874" cy="5.684" r="0.11"/>
			<path d="M1.358,5.528c0,0.061-0.051,0.11-0.112,0.11c-0.06-0.002-0.11-0.053-0.108-0.112c0-0.06,0.051-0.11,0.111-0.11
				S1.358,5.467,1.358,5.528z"/>
		</g>
		<g>
			<path d="M2.05,6.406c0.4-0.08,0.817-0.076,1.217,0.005c0.116,0.021,0.242,0.043,0.328,0.135C3.336,6.585,3.101,6.432,2.843,6.444
				c0.176,0.062,0.364,0.073,0.543,0.128c0.002,0.014,0.008,0.041,0.01,0.055c-0.133,0-0.267-0.015-0.393-0.06
				C2.687,6.459,2.345,6.463,2.019,6.52C1.864,6.543,1.715,6.615,1.556,6.596C1.697,6.484,1.878,6.445,2.05,6.406z"/>
		</g>
	</g>
	<g>
		<g>
			<path fill="#FF7B98" d="M5.29,9.61l0.002,0.108l-0.249-0.41C5.007,9.247,4.976,9.215,4.95,9.21
				C4.915,9.215,4.897,9.202,4.897,9.18c0-0.024,0.017-0.037,0.052-0.037l0.29-0.004c0.041-0.002,0.06,0.01,0.06,0.033
				C5.3,9.196,5.28,9.207,5.24,9.205C5.198,9.217,5.196,9.254,5.233,9.316l0.19,0.292L5.29,9.61z M5.226,10.189
				c-0.041,0-0.061-0.014-0.061-0.04c-0.001-0.023,0.021-0.033,0.066-0.028c0.045-0.003,0.067-0.027,0.067-0.072L5.29,9.611
				l0.188-0.002l0.008,0.437c0,0.046,0.025,0.068,0.068,0.07c0.037,0,0.057,0.011,0.057,0.03c0,0.023-0.018,0.035-0.055,0.037
				L5.226,10.189z M5.478,9.608l0.002,0.056l0.231-0.383c0.031-0.048,0.063-0.074,0.095-0.077C5.842,9.203,5.86,9.189,5.86,9.163
				C5.858,9.139,5.839,9.125,5.804,9.125L5.558,9.129C5.524,9.13,5.507,9.145,5.507,9.17c0.004,0.023,0.021,0.033,0.057,0.027
				c0.045,0.009,0.062,0.038,0.049,0.086L5.425,9.609L5.478,9.608z"/>
		</g>
		<g>
			<path fill="#FF7B98" d="M6.083,10.148c-0.039,0-0.061-0.012-0.061-0.032c0-0.024,0.019-0.039,0.053-0.035
				c0.042,0,0.074-0.021,0.095-0.06l0.334-0.78L6.478,9.206C6.53,9.201,6.573,9.178,6.603,9.139l0.371,0.869
				c0.01,0.035,0.041,0.06,0.092,0.069c0.041-0.003,0.061,0.009,0.063,0.035c-0.003,0.024-0.022,0.036-0.057,0.036H6.754
				c-0.034,0-0.052-0.012-0.052-0.036c0-0.022,0.02-0.035,0.057-0.035c0.055-0.003,0.075-0.022,0.061-0.063L6.711,9.771H6.333
				l0.032-0.079h0.319L6.54,9.361c-0.014-0.024-0.023-0.024-0.036,0L6.22,10.044c-0.009,0.03,0.023,0.043,0.096,0.04
				c0.037-0.002,0.056,0.01,0.056,0.036c0.003,0.024-0.017,0.033-0.06,0.026L6.083,10.148L6.083,10.148z"/>
		</g>
		<g>
			<path fill="#FF7B98" d="M8.261,10.217L7.586,9.413v0.685c0.002,0.041,0.028,0.064,0.076,0.076
				c0.034-0.004,0.052,0.008,0.055,0.03c0,0.029-0.018,0.043-0.052,0.041H7.422c-0.034,0-0.053-0.015-0.055-0.041
				c0.002-0.022,0.021-0.034,0.056-0.03c0.044-0.009,0.066-0.035,0.066-0.084V9.377C7.485,9.318,7.463,9.284,7.423,9.273
				c-0.04-0.006-0.061-0.02-0.061-0.04c0-0.026,0.021-0.04,0.06-0.04h0.177c0.051,0.004,0.088,0.031,0.11,0.084l0.519,0.611
				L8.226,9.361C8.224,9.301,8.202,9.266,8.163,9.258C8.131,9.26,8.114,9.251,8.11,9.23c0-0.024,0.021-0.036,0.059-0.036h0.219
				c0.035-0.003,0.051,0.009,0.051,0.03c0,0.027-0.019,0.039-0.053,0.037C8.343,9.266,8.322,9.303,8.322,9.368l0.004,0.812
				C8.321,10.229,8.301,10.24,8.261,10.217z"/>
		</g>
		<g>
			<path fill="#FF7B98" d="M8.649,10.133c-0.037-0.004-0.057-0.018-0.057-0.045c0-0.025,0.034-0.082,0.104-0.166l0.245-0.347
				l0.109,0.083L8.862,9.941c-0.026,0.076,0.009,0.115,0.107,0.111h0.129c0.066-0.004,0.123-0.024,0.168-0.063
				s0.078-0.06,0.103-0.06C9.392,9.932,9.397,9.95,9.394,9.985L9.369,10.08c-0.013,0.043-0.041,0.061-0.086,0.053H8.649z
				 M9.356,9.086C9.396,9.089,9.415,9.104,9.415,9.13S9.38,9.212,9.31,9.297L9.054,9.658L8.944,9.575l0.197-0.298
				c0.035-0.074,0.002-0.111-0.096-0.111H8.911C8.843,9.169,8.784,9.189,8.739,9.229C8.694,9.27,8.661,9.289,8.636,9.289
				C8.614,9.287,8.606,9.268,8.612,9.233l0.023-0.095c0.012-0.043,0.043-0.062,0.088-0.053H9.356L9.356,9.086z"/>
		</g>
		<g>
			<path fill="#FF7B98" d="M12.212,10.116c-0.004,0.079-0.035,0.12-0.098,0.123c-0.059-0.005-0.09-0.054-0.09-0.146
				c0-0.084,0.033-0.132,0.096-0.142C12.185,9.967,12.216,10.021,12.212,10.116z"/>
		</g>
		<g>
			<path fill="#FF7B98" d="M12.651,10.168c-0.041,0.003-0.063-0.007-0.066-0.029c0-0.025,0.023-0.035,0.066-0.035
				c0.045-0.008,0.068-0.043,0.065-0.102l-0.059-0.697c-0.009-0.061-0.033-0.092-0.076-0.094l-0.131,0.003
				c-0.037,0.007-0.063,0.032-0.076,0.078c-0.021,0.062-0.047,0.093-0.08,0.095c-0.022,0-0.034-0.021-0.028-0.063l0.021-0.122
				c0.008-0.035,0.035-0.057,0.082-0.063l0.717-0.06c0.058-0.003,0.095,0.015,0.113,0.056l0.032,0.104
				c0.017,0.038,0.011,0.061-0.02,0.064c-0.029,0.002-0.055-0.024-0.082-0.082c-0.021-0.037-0.051-0.057-0.088-0.056l-0.158,0.021
				c-0.039,0.013-0.055,0.047-0.053,0.102L12.89,9.98c0.008,0.056,0.029,0.084,0.066,0.091c0.049-0.005,0.072,0.005,0.076,0.028
				c0.002,0.023-0.016,0.037-0.053,0.041L12.651,10.168z"/>
		</g>
		<g>
			<path fill="#FF7B98" d="M13.923,10.299c-0.305-0.033-0.461-0.195-0.475-0.486L13.46,9.68c0.021-0.295,0.191-0.438,0.508-0.435
				c0.33,0.056,0.49,0.244,0.48,0.565l-0.008,0.1C14.394,10.184,14.22,10.314,13.923,10.299z M14.058,9.344l-0.086-0.02
				c-0.17,0.006-0.279,0.15-0.33,0.431L13.634,9.85c-0.002,0.185,0.066,0.299,0.203,0.343l0.08,0.019
				c0.176-0.006,0.285-0.131,0.328-0.375l0.006-0.091C14.259,9.514,14.196,9.379,14.058,9.344z"/>
		</g>
		<g>
			<path fill="#FF7B98" d="M14.765,10.268c-0.045,0.007-0.067-0.002-0.074-0.024c-0.004-0.028,0.015-0.044,0.047-0.044
				c0.033-0.012,0.05-0.038,0.046-0.08l-0.07-0.775c-0.002-0.037-0.019-0.056-0.045-0.053c-0.043,0.01-0.067,0.004-0.071-0.018
				c-0.002-0.024,0.018-0.036,0.061-0.038l0.393-0.038c0.188-0.008,0.291,0.08,0.311,0.259c0.005,0.167-0.073,0.256-0.235,0.265
				l-0.222,0.021l-0.004-0.035L15,9.697c0.121-0.014,0.181-0.094,0.179-0.239c-0.017-0.129-0.087-0.196-0.216-0.2l-0.065,0.006
				c-0.033,0.008-0.045,0.033-0.029,0.074l0.068,0.762c0.002,0.054,0.022,0.08,0.063,0.078c0.037-0.007,0.059,0.004,0.063,0.025
				c0.004,0.025-0.018,0.042-0.067,0.046L14.765,10.268z"/>
		</g>
		<g>
			<path fill="#FF7B98" d="M9.755,10.371c-0.041-0.001-0.061-0.016-0.063-0.042c0-0.021,0.021-0.028,0.061-0.024
				c0.053,0.002,0.08-0.029,0.082-0.095l0.023-0.719C9.862,9.43,9.837,9.398,9.786,9.393c-0.039,0.002-0.059-0.01-0.057-0.033
				c0-0.026,0.021-0.038,0.063-0.037l0.322,0.011c0.043,0.002,0.063,0.015,0.063,0.038c-0.003,0.023-0.023,0.035-0.07,0.037
				c-0.039,0.002-0.06,0.033-0.063,0.097l-0.021,0.712c0,0.059,0.02,0.092,0.059,0.094c0.035,0.002,0.053,0.015,0.051,0.039
				c0.004,0.022-0.012,0.035-0.049,0.033L9.755,10.371z M10.396,10.389c-0.041-0.002-0.064-0.015-0.066-0.037
				c0-0.023,0.023-0.035,0.068-0.033c0.053-0.002,0.078-0.031,0.078-0.09l0.01-0.295l-0.453-0.015l0.004-0.092l0.451,0.015
				l0.012-0.31c0-0.071-0.023-0.112-0.068-0.122c-0.043-0.002-0.063-0.014-0.063-0.038c0.002-0.022,0.023-0.035,0.066-0.034
				l0.319,0.012c0.043,0.002,0.063,0.017,0.065,0.047c0,0.022-0.022,0.033-0.071,0.029c-0.041,0-0.062,0.037-0.063,0.107
				l-0.02,0.699c-0.006,0.06,0.016,0.09,0.064,0.091c0.033,0.001,0.053,0.015,0.055,0.041c-0.002,0.026-0.021,0.038-0.061,0.034
				L10.396,10.389z"/>
		</g>
		<g>
			<path fill="#FF7B98" d="M11.315,10.244c-0.041,0.007-0.063-0.002-0.068-0.025c-0.006-0.021,0.014-0.037,0.057-0.045
				c0.047-0.008,0.066-0.037,0.062-0.091L11.246,9.36c-0.011-0.058-0.039-0.085-0.086-0.082c-0.043,0.009-0.063,0.002-0.068-0.021
				c-0.006-0.027,0.017-0.044,0.058-0.051l0.315-0.054c0.043-0.007,0.066,0.002,0.068,0.024c0.008,0.025-0.013,0.041-0.056,0.045
				c-0.043,0.014-0.057,0.051-0.047,0.112l0.117,0.711c0.01,0.056,0.037,0.079,0.078,0.072c0.039-0.007,0.061,0.002,0.064,0.024
				s-0.012,0.039-0.047,0.045L11.315,10.244z"/>
		</g>
	</g>
	<g>
		<g>
			<path d="M6.771,6.612l0.104-0.107C6.888,6.49,6.897,6.484,6.903,6.484c0.007,0,0.019,0.008,0.035,0.023l0.131,0.125
				C7.088,6.65,7.097,6.664,7.097,6.676c-0.002,0.012-0.01,0.019-0.023,0.018L5.06,6.571C5.041,6.57,5.031,6.559,5.03,6.538
				C5.028,6.518,5.04,6.508,5.063,6.51l0.926,0.057c-0.006-0.004-0.014-0.01-0.024-0.021c-0.01-0.01-0.017-0.03-0.022-0.063
				L5.935,6.426C5.931,6.409,5.924,6.391,5.914,6.371c-0.011-0.02-0.021-0.034-0.031-0.044L5.83,6.281
				c-0.003-0.002-0.006-0.005-0.007-0.01C5.822,6.268,5.822,6.266,5.822,6.264s0-0.004,0.003-0.006
				C5.83,6.251,5.843,6.249,5.865,6.25c0.102,0.008,0.183,0.032,0.239,0.072C6.162,6.362,6.188,6.4,6.188,6.438
				c-0.002,0.037-0.01,0.066-0.026,0.091C6.149,6.545,6.133,6.561,6.11,6.573L6.771,6.612z M5.375,7.469L5.332,8.206
				C5.331,8.229,5.322,8.25,5.306,8.268C5.291,8.286,5.261,8.295,5.217,8.299S5.146,8.301,5.136,8.29
				C5.124,8.281,5.117,8.27,5.112,8.258l0.025-0.22l0.033-0.526V7.299c0.004-0.005,0.008-0.007,0.01-0.008
				c0-0.001,0.014,0.004,0.034,0.016l0.193,0.103l0.421,0.024l0.83,0.05L6.72,7.41c0.01-0.014,0.02-0.02,0.026-0.018
				c0.008,0.002,0.017,0.006,0.024,0.012l0.17,0.117C6.951,7.53,6.956,7.536,6.958,7.539c0.001,0.003,0.001,0.006,0.001,0.01
				c0.001,0.002,0,0.006-0.003,0.012S6.949,7.572,6.944,7.576l-0.061,0.05L6.843,8.301c-0.002,0.053-0.047,0.09-0.131,0.108
				s-0.134,0.028-0.15,0.026c-0.008,0-0.014-0.002-0.017-0.004S6.539,8.426,6.537,8.42C6.534,8.413,6.53,8.393,6.524,8.354
				c-0.004-0.039-0.031-0.068-0.082-0.09L6.374,8.235C6.362,8.23,6.356,8.225,6.358,8.214c0-0.005,0.002-0.011,0.008-0.014
				c0.005-0.004,0.01-0.006,0.017-0.005L6.474,8.2C6.556,8.205,6.601,8.204,6.61,8.199s0.018-0.014,0.022-0.023
				C6.638,8.165,6.642,8.15,6.644,8.129l0.035-0.583L5.375,7.469z M5.694,7.189L5.69,7.245C5.688,7.266,5.672,7.278,5.64,7.287
				C5.606,7.295,5.576,7.301,5.551,7.299c-0.026,0-0.042-0.007-0.049-0.015C5.496,7.276,5.492,7.266,5.49,7.253l0.022-0.185
				l0.012-0.192V6.712c0.007-0.006,0.012-0.01,0.017-0.01l0.019,0.01l0.187,0.104l0.64,0.039l0.067-0.068
				C6.465,6.775,6.474,6.77,6.479,6.77s0.016,0.005,0.031,0.015L6.642,6.88c0.022,0.017,0.034,0.032,0.033,0.041
				S6.667,6.938,6.653,6.945L6.603,6.975L6.589,7.184L6.586,7.291c-0.009,0.026-0.03,0.044-0.063,0.053
				c-0.035,0.01-0.064,0.014-0.09,0.01c-0.016,0-0.031-0.006-0.041-0.016C6.378,7.33,6.372,7.317,6.374,7.303L6.377,7.23
				L5.694,7.189z M5.756,8.021L5.751,8.108C5.75,8.123,5.733,8.135,5.705,8.145c-0.03,0.011-0.06,0.015-0.085,0.012
				c-0.016-0.001-0.028-0.004-0.037-0.01c-0.01-0.004-0.016-0.012-0.021-0.023L5.58,7.969l0.015-0.257V7.559
				C5.603,7.555,5.62,7.561,5.646,7.575l0.141,0.088l0.426,0.024l0.053-0.055c0.01-0.011,0.02-0.016,0.027-0.015
				c0.005,0,0.014,0.005,0.023,0.015l0.134,0.11c0.011,0.01,0.017,0.021,0.017,0.028C6.465,7.779,6.459,7.786,6.449,7.792
				L6.403,7.817l-0.01,0.169L6.392,8.104C6.376,8.15,6.329,8.17,6.251,8.165C6.205,8.162,6.185,8.146,6.187,8.114l0.002-0.065
				L5.756,8.021z M6.381,7.169l0.015-0.25L5.713,6.878l-0.015,0.25L6.381,7.169z M6.192,7.986l0.016-0.235L5.774,7.725L5.759,7.959
				L6.192,7.986z"/>
		</g>
		<g>
			<path d="M8.169,6.785l0.055-0.089C8.233,6.68,8.242,6.67,8.247,6.67c0.007,0,0.02,0.008,0.04,0.022l0.108,0.084
				C8.412,6.789,8.42,6.799,8.42,6.809c0,0.015-0.011,0.021-0.028,0.023L8.196,6.844L7.532,6.885c-0.018,0-0.03-0.009-0.034-0.029
				s0.006-0.03,0.03-0.032L8.169,6.785z M8.056,7.235C8.072,7.143,8.083,7.068,8.09,7.01l0.009-0.078l0.006-0.057
				C8.112,6.868,8.125,6.87,8.142,6.878l0.133,0.068c0.037,0.019,0.056,0.03,0.055,0.036C8.328,6.987,8.321,6.994,8.31,7.001
				L8.254,7.036C8.229,7.08,8.209,7.113,8.197,7.135l-0.05,0.076L8.136,7.232l0.107-0.008l0.052-0.082
				C8.304,7.13,8.31,7.123,8.315,7.122s0.018,0.006,0.035,0.021L8.455,7.23C8.47,7.242,8.476,7.25,8.476,7.255
				c0,0.013-0.009,0.019-0.024,0.019L8.349,7.28L7.771,7.314C7.772,7.352,7.772,7.38,7.774,7.398c0,0.018,0.002,0.063,0.006,0.14
				c0.003,0.074,0.006,0.149,0.007,0.226c0,0.075-0.005,0.149-0.015,0.222C7.763,8.057,7.746,8.127,7.72,8.197
				c-0.025,0.07-0.07,0.152-0.136,0.244L7.532,8.518c-0.012,0.016-0.02,0.021-0.024,0.017s-0.007-0.01-0.007-0.017
				C7.5,8.512,7.502,8.504,7.506,8.494l0.038-0.089C7.56,8.366,7.573,8.33,7.584,8.293s0.021-0.092,0.024-0.166
				c0.008-0.072,0.01-0.138,0.011-0.191c0-0.056-0.001-0.121-0.005-0.194L7.608,7.658C7.604,7.594,7.603,7.547,7.601,7.516
				C7.597,7.484,7.595,7.443,7.589,7.393l-0.012-0.11L7.565,7.208c0.004-0.002,0.007-0.003,0.011-0.003s0.019,0.006,0.046,0.018
				l0.079,0.033l0.12-0.007c-0.014-0.003-0.026-0.01-0.038-0.021C7.771,7.221,7.763,7.195,7.759,7.156L7.757,7.074
				C7.756,7.063,7.755,7.049,7.751,7.03C7.748,7.012,7.743,6.997,7.737,6.988L7.71,6.953C7.706,6.948,7.704,6.944,7.704,6.944V6.939
				c-0.002-0.002-0.002-0.002,0-0.002c-0.001-0.006,0.003-0.01,0.014-0.012c0.01,0,0.032,0.01,0.068,0.028
				C7.822,6.975,7.854,6.998,7.884,7.03c0.029,0.03,0.045,0.063,0.047,0.093C7.933,7.154,7.929,7.18,7.92,7.199
				C7.91,7.221,7.894,7.237,7.87,7.246L8.056,7.235z M8.437,8.133C8.296,8.223,8.188,8.285,8.11,8.321
				C8.032,8.355,7.967,8.385,7.914,8.403C7.862,8.424,7.83,8.436,7.819,8.439L7.747,8.469C7.739,8.473,7.731,8.473,7.726,8.471
				C7.72,8.467,7.717,8.463,7.717,8.457s0.005-0.012,0.015-0.02l0.086-0.053c0.076-0.049,0.154-0.104,0.24-0.168
				c0.086-0.064,0.156-0.128,0.213-0.188l0.057-0.062l0.027-0.039c0.004,0,0.006,0,0.011,0c0.002,0,0.009,0.006,0.017,0.016
				l0.1,0.105c0.029,0.034,0.045,0.055,0.041,0.063C8.519,8.12,8.513,8.126,8.506,8.126L8.437,8.133z M7.804,6.53L7.776,6.495
				C7.772,6.49,7.771,6.486,7.769,6.48c0-0.004,0.008-0.008,0.024-0.012c0.011,0,0.028,0.002,0.052,0.01l0.069,0.025
				C7.944,6.52,7.97,6.541,7.993,6.57C8.015,6.6,8.026,6.63,8.028,6.66C8.03,6.691,8.021,6.719,8.002,6.745
				c-0.021,0.026-0.045,0.04-0.077,0.041c-0.021,0-0.039-0.005-0.051-0.017S7.853,6.745,7.849,6.73
				c-0.004-0.014-0.008-0.024-0.01-0.032L7.838,6.605C7.832,6.58,7.821,6.555,7.804,6.53z M8.29,7.484
				c-0.105,0.068-0.205,0.127-0.3,0.173L7.903,7.698L7.834,7.732C7.827,7.735,7.822,7.737,7.817,7.738c-0.002,0-0.006,0-0.008-0.001
				S7.808,7.732,7.806,7.725c0-0.006,0.004-0.014,0.014-0.021l0.058-0.046C7.92,7.623,7.968,7.576,8.021,7.52
				c0.054-0.055,0.092-0.099,0.113-0.129l0.041-0.057C8.187,7.32,8.19,7.313,8.192,7.313c0.004,0,0.006,0,0.009,0l0.026,0.02
				l0.144,0.111C8.401,7.467,8.39,7.482,8.33,7.485L8.29,7.484z M8.354,7.794c-0.041,0.022-0.088,0.05-0.146,0.08
				C8.149,7.905,8.062,7.947,7.944,8L7.87,8.033C7.865,8.037,7.86,8.038,7.854,8.038c-0.004,0-0.008-0.001-0.008-0.003
				c0-0.003-0.002-0.006-0.002-0.012c-0.002-0.006,0.002-0.012,0.014-0.02l0.055-0.042c0.084-0.065,0.15-0.12,0.197-0.166
				C8.158,7.75,8.187,7.719,8.2,7.703l0.052-0.063c0.017-0.021,0.026-0.031,0.03-0.032c0.003-0.001,0.011,0.004,0.021,0.015
				l0.102,0.105C8.41,7.736,8.415,7.744,8.42,7.753C8.424,7.762,8.421,7.768,8.412,7.77L8.39,7.771L8.354,7.794z M8.981,7.311
				c0.004,0.064,0.006,0.121,0.008,0.168c0.002,0.048,0.006,0.099,0.006,0.154c0.002,0.057,0.004,0.111,0.002,0.168
				c0,0.055-0.004,0.096-0.008,0.127l-0.014,0.08C9.103,8.043,9.209,8.081,9.293,8.12c0.084,0.04,0.136,0.083,0.154,0.128
				c0.018,0.046,0.028,0.077,0.028,0.096c0,0.025-0.006,0.053-0.018,0.078C9.444,8.449,9.423,8.464,9.394,8.467
				C9.378,8.469,9.36,8.463,9.341,8.453c-0.02-0.011-0.043-0.035-0.066-0.075L9.192,8.244c-0.024-0.036-0.055-0.068-0.09-0.102
				c-0.035-0.03-0.082-0.062-0.141-0.09C8.948,8.084,8.929,8.125,8.903,8.174C8.876,8.225,8.817,8.282,8.728,8.35
				C8.636,8.413,8.545,8.463,8.455,8.496L8.367,8.53C8.36,8.532,8.351,8.533,8.345,8.532c-0.008,0-0.013-0.002-0.012-0.005
				c0-0.004,0.004-0.008,0.007-0.014c0.005-0.006,0.011-0.012,0.019-0.017l0.084-0.046C8.511,8.412,8.575,8.364,8.63,8.307
				C8.685,8.25,8.726,8.2,8.753,8.152C8.78,8.105,8.804,8.045,8.819,7.971C8.834,7.896,8.84,7.813,8.837,7.715
				s-0.006-0.166-0.01-0.207C8.825,7.467,8.823,7.434,8.821,7.409L8.808,7.258L8.797,7.202C8.799,7.196,8.804,7.193,8.81,7.191
				l0.022,0.004l0.17,0.031C9.013,7.229,9.021,7.23,9.022,7.234c0.006,0.003,0.009,0.008,0.009,0.013
				c0.002,0.005-0.005,0.015-0.019,0.026L8.981,7.311z M9.101,7.049L8.667,7.074L8.72,7.977C8.722,8.01,8.71,8.035,8.688,8.049
				C8.668,8.063,8.644,8.071,8.617,8.072c-0.025,0.003-0.043,0-0.05-0.008C8.56,8.057,8.554,8.049,8.551,8.039L8.545,7.792
				L8.513,7.219L8.49,6.949C8.494,6.947,8.497,6.945,8.5,6.945c0.002,0,0.021,0.006,0.058,0.021l0.104,0.045l0.104-0.007
				c-0.002-0.01-0.002-0.019,0-0.024V6.825C8.765,6.734,8.763,6.686,8.765,6.68V6.669L8.394,6.689
				C8.375,6.691,8.365,6.682,8.36,6.662C8.354,6.643,8.366,6.631,8.39,6.63l0.715-0.042l0.064-0.113
				c0.008-0.015,0.016-0.021,0.02-0.021c0.006,0,0.019,0.006,0.033,0.019l0.129,0.103c0.006,0.006,0.013,0.013,0.017,0.021
				S9.373,6.612,9.375,6.62c0,0.01-0.008,0.015-0.028,0.017L9.198,6.645L9.015,6.656L8.851,7.002l0.233-0.014l0.045-0.076
				C9.138,6.9,9.144,6.895,9.146,6.895s0.014,0.007,0.035,0.02l0.131,0.081C9.336,7.01,9.347,7.02,9.347,7.025
				c0,0.005-0.005,0.012-0.015,0.021L9.281,7.098l0.038,0.664L9.34,7.911C9.338,7.932,9.332,7.946,9.324,7.955
				c-0.009,0.01-0.021,0.02-0.041,0.03C9.263,7.997,9.24,8.003,9.213,8.004C9.199,8.005,9.187,8.003,9.172,7.995
				C9.16,7.99,9.153,7.98,9.153,7.973L9.101,7.049z"/>
		</g>
		<g>
			<path d="M10.474,6.417c-0.1,0.173-0.156,0.271-0.17,0.292l-0.066,0.108l0.117,0.05c0.011,0.005,0.019,0.009,0.021,0.013
				c0.006,0.003,0.008,0.007,0.008,0.009c0.002,0.002,0,0.004,0,0.011c-0.002,0.006-0.008,0.013-0.018,0.021l-0.041,0.033
				l-0.064,1.025l-0.01,0.218c-0.025,0.039-0.061,0.06-0.105,0.06c-0.047,0-0.076-0.005-0.084-0.014
				c-0.01-0.009-0.016-0.02-0.021-0.032l0.031-0.309l0.059-0.919c-0.041,0.052-0.088,0.109-0.139,0.167
				C9.938,7.208,9.906,7.245,9.89,7.262L9.822,7.327c-0.009,0.007-0.015,0.011-0.021,0.01c-0.002,0-0.004-0.001-0.006-0.003
				C9.792,7.331,9.792,7.328,9.792,7.323s0.004-0.013,0.006-0.019l0.057-0.093c0.041-0.063,0.09-0.159,0.15-0.286
				s0.107-0.234,0.141-0.324c0.031-0.086,0.056-0.153,0.068-0.198l0.045-0.146l0.014-0.046c0.002-0.001,0.002-0.002,0.004-0.002
				c0.002,0.001,0.007,0.001,0.007,0.001l0.034,0.02l0.218,0.106c0.022,0.013,0.032,0.023,0.032,0.033s-0.01,0.019-0.026,0.024
				L10.474,6.417z M10.565,8.124l0.065-1.016L10.64,6.82c0.006-0.004,0.012-0.008,0.016-0.008s0.016,0.007,0.035,0.02l0.143,0.09
				l0.184,0.012l0.027-0.285l-0.539-0.034l-0.006-0.001l-0.006-0.002l-0.004-0.002c-0.008-0.008-0.014-0.021-0.016-0.035
				c-0.002-0.016,0.012-0.021,0.034-0.021l0.541,0.034l0.009-0.12l0.004-0.188c0.004-0.007,0.008-0.009,0.01-0.009
				c0.002-0.002,0.014,0,0.035,0.007l0.221,0.056c0.027,0.008,0.041,0.018,0.039,0.027s-0.008,0.02-0.021,0.027l-0.061,0.037
				l-0.021,0.178l0.353,0.022l0.098-0.108c0.015-0.016,0.022-0.023,0.031-0.023c0.006,0,0.017,0.007,0.032,0.021l0.127,0.125
				c0.019,0.019,0.027,0.033,0.025,0.045c-0.002,0.016-0.012,0.022-0.031,0.021l-0.112-0.007l-0.531-0.035l-0.039,0.286l0.211,0.013
				l0.064-0.071c0.016-0.02,0.026-0.028,0.028-0.028c0.006,0,0.021,0.011,0.054,0.032l0.135,0.104
				c0.013,0.01,0.019,0.02,0.019,0.027c0,0.009-0.004,0.016-0.015,0.021l-0.067,0.041l-0.072,1.104l0.033,0.002l0.1-0.115
				c0.01-0.011,0.018-0.018,0.025-0.018c0.006,0,0.02,0.01,0.035,0.026l0.121,0.14c0.008,0.009,0.012,0.015,0.012,0.018
				c0.002,0.004,0.004,0.008,0.004,0.012c0,0.006-0.004,0.008-0.01,0.014c-0.009,0.005-0.017,0.006-0.025,0.005l-1.545-0.099
				l-0.023-0.009c-0.008-0.009-0.012-0.021-0.014-0.034c-0.002-0.016,0.01-0.022,0.035-0.021L10.565,8.124z M11.364,8.176
				l0.018-0.27l-0.604-0.039l-0.018,0.27L11.364,8.176z M11.401,7.609L10.797,7.57l-0.016,0.234l0.604,0.039L11.401,7.609z
				 M11.421,7.325l-0.605-0.039l-0.014,0.222l0.604,0.038L11.421,7.325z M11.438,7.024l-0.605-0.039L10.819,7.21l0.604,0.039
				L11.438,7.024z"/>
		</g>
	</g>
	<g>
		<path d="M2.515,10.584c-0.004-0.001-0.007-0.002-0.011-0.002c-0.094-0.001-0.187-0.009-0.278-0.025
			c-0.162-0.025-0.315-0.074-0.463-0.146c-0.148-0.069-0.285-0.159-0.41-0.265c-0.199-0.168-0.357-0.368-0.478-0.6
			c-0.089-0.169-0.151-0.349-0.19-0.535C0.67,8.945,0.659,8.876,0.651,8.807c-0.006-0.055-0.01-0.109-0.01-0.164
			c-0.004-0.074,0-0.146,0.004-0.221c0.013-0.18,0.047-0.354,0.106-0.525c0.084-0.247,0.211-0.471,0.381-0.668
			c0.071-0.084,0.149-0.159,0.234-0.229C1.37,6.996,1.373,6.994,1.378,6.993C1.376,6.995,1.374,6.997,1.372,6.999
			c-0.084,0.076-0.16,0.16-0.229,0.25C1.078,7.336,1.019,7.428,0.97,7.526C0.924,7.613,0.886,7.704,0.854,7.797
			C0.823,7.891,0.799,7.986,0.783,8.085C0.769,8.168,0.759,8.253,0.756,8.338C0.755,8.369,0.754,8.4,0.754,8.432
			c0,0.063,0.004,0.123,0.011,0.186c0.01,0.1,0.026,0.197,0.051,0.295c0.033,0.127,0.078,0.25,0.134,0.367
			c0.083,0.17,0.188,0.324,0.317,0.463c0.141,0.15,0.301,0.273,0.482,0.368c0.145,0.073,0.297,0.128,0.457,0.159
			c0.075,0.015,0.15,0.023,0.227,0.027c0.051,0.004,0.104,0.006,0.155,0.002c0.034-0.002,0.068-0.004,0.103-0.006
			c0.058-0.006,0.113-0.014,0.168-0.025c0.136-0.025,0.266-0.068,0.391-0.127c0.154-0.073,0.297-0.168,0.425-0.281
			c0.161-0.146,0.293-0.313,0.396-0.502C4.156,9.198,4.22,9.03,4.258,8.854c0.015-0.07,0.027-0.142,0.034-0.213
			c0.01-0.088,0.014-0.174,0.012-0.261c0-0.058-0.005-0.116-0.011-0.176C4.278,8.071,4.251,7.942,4.21,7.814
			C4.159,7.656,4.088,7.506,3.999,7.366C3.935,7.268,3.862,7.174,3.78,7.089C3.755,7.063,3.728,7.037,3.701,7.012
			C3.699,7.01,3.698,7.01,3.696,7.01c0.001-0.002,0.001-0.002,0.002-0.002c0.002,0,0.005,0.004,0.008,0.006
			c0.137,0.116,0.257,0.25,0.357,0.399c0.107,0.158,0.19,0.329,0.25,0.511c0.029,0.092,0.054,0.188,0.07,0.284
			C4.399,8.296,4.41,8.387,4.413,8.477c0.002,0.041,0.003,0.084,0.003,0.125C4.415,8.689,4.409,8.776,4.397,8.862
			C4.37,9.07,4.313,9.27,4.224,9.46C4.136,9.653,4.019,9.828,3.873,9.984c-0.147,0.158-0.317,0.29-0.511,0.393
			c-0.143,0.075-0.295,0.131-0.454,0.165c-0.07,0.017-0.142,0.025-0.214,0.033c-0.047,0.004-0.094,0.007-0.143,0.007
			c-0.004,0-0.008,0.001-0.012,0.002C2.532,10.584,2.522,10.584,2.515,10.584z"/>
	</g>
</g>
</svg>
