<?xml version="1.0" encoding="utf-8"?>
<!-- Generator: Adobe Illustrator 16.0.0, SVG Export Plug-In . SVG Version: 6.00 Build 0)  -->
<!DOCTYPE svg PUBLIC "-//W3C//DTD SVG 1.1//EN" "http://www.w3.org/Graphics/SVG/1.1/DTD/svg11.dtd">
<svg version="1.1" id="图层_1" xmlns="http://www.w3.org/2000/svg" xmlns:xlink="http://www.w3.org/1999/xlink" x="0px" y="0px"
	 width="16px" height="16px" viewBox="0 0 16 16" enable-background="new 0 0 16 16" xml:space="preserve">
<g>
	<circle fill="#4DC8F1" cx="8" cy="8" r="7.8"/>
	<g>
		<polygon fill-rule="evenodd" clip-rule="evenodd" fill="#FFFFFF" points="5.849,6.925 10.149,6.925 10.149,8 5.849,8 5.849,6.925 
					"/>
		<path fill-rule="evenodd" clip-rule="evenodd" fill="#FFFFFF" d="M11.76,5.859h-1.072V8.01h0.27c0.15,0,0.271,0.124,0.271,0.27
			c0,0.148-0.124,0.269-0.271,0.269H5.042c-0.148,0-0.27-0.123-0.27-0.269c0-0.149,0.123-0.27,0.27-0.27h0.27V5.859H4.234
			c-0.298,0-0.537,0.241-0.537,0.535v4.957c0,0.295,0.241,0.534,0.54,0.534h7.527c0.298,0,0.539-0.241,0.539-0.534V6.396
			C12.3,6.101,12.057,5.859,11.76,5.859L11.76,5.859z"/>
		<polygon fill-rule="evenodd" clip-rule="evenodd" fill="#FFFFFF" points="9.074,5.871 10.149,5.871 10.149,4.126 5.849,4.126 
			5.849,5.871 6.923,5.871 9.074,5.871 		"/>
		<polygon fill-rule="evenodd" clip-rule="evenodd" fill="#FFFFFF" points="10.149,5.859 9.074,5.859 6.923,5.859 5.849,5.859 
			5.849,6.935 10.149,6.935 10.149,5.859 		"/>
	</g>
</g>
</svg>
