<?xml version="1.0" encoding="utf-8"?>
<!-- Generator: Adobe Illustrator 16.0.0, SVG Export Plug-In . SVG Version: 6.00 Build 0)  -->
<!DOCTYPE svg PUBLIC "-//W3C//DTD SVG 1.1//EN" "http://www.w3.org/Graphics/SVG/1.1/DTD/svg11.dtd">
<svg version="1.1" id="图层_1" xmlns="http://www.w3.org/2000/svg" xmlns:xlink="http://www.w3.org/1999/xlink" x="0px" y="0px"
	 width="16px" height="16px" viewBox="0 0 16 16" enable-background="new 0 0 16 16" xml:space="preserve">
<g>
	<circle fill="#FF7373" cx="8" cy="8" r="7.8"/>
	<g>
		<path fill="#FFFFFF" d="M12.486,5.078c-0.545-0.578-1.264-0.88-2.057-0.88c-0.744,0-1.438,0.277-1.983,0.805l-0.05,0.05
			L8.323,4.978c-0.545-0.503-1.239-0.78-1.983-0.78c-0.769,0-1.487,0.302-2.032,0.88C3.738,5.656,3.44,6.411,3.44,7.215
			c0,0.804,0.297,1.583,0.868,2.137l3.495,2.6c0.173,0.175,0.372,0.25,0.595,0.25s0.446-0.102,0.595-0.25
			c0,0,3.444-2.524,3.495-2.573c0.546-0.579,0.867-1.333,0.867-2.137C13.354,6.411,13.059,5.656,12.486,5.078L12.486,5.078z
			 M6.514,6.008c0,0-0.793,0.227-0.942,0.628C5.423,7.039,5.374,7.742,5.374,7.742s-0.1,0.176-0.249,0.176
			c-0.148,0-0.248-0.176-0.248-0.176S4.804,7.039,5.125,6.335C5.448,5.631,6.514,5.48,6.514,5.48s0.199,0.076,0.199,0.276
			C6.712,5.958,6.514,6.008,6.514,6.008L6.514,6.008z"/>
	</g>
</g>
</svg>
